<?xml version="1.0" encoding="UTF-8"?>
<svg version="1.1" xmlns="http://www.w3.org/2000/svg" width="74" height="47">
<path d="M0 0 C24.42 0 48.84 0 74 0 C74 15.51 74 31.02 74 47 C49.58 47 25.16 47 0 47 C0 31.49 0 15.98 0 0 Z " fill="#FCF4DB" transform="translate(0,0)"/>
<path d="M0 0 C2.77599125 1.38799563 2.88031856 2.80185042 4 5.6875 C6.99159755 13.13486067 10.34204007 20.4064743 13.69726562 27.69604492 C14.12330078 28.62521729 14.54933594 29.55438965 14.98828125 30.51171875 C15.56896362 31.77181763 15.56896362 31.77181763 16.16137695 33.05737305 C17 35 17 35 17 36 C6.44 36 -4.12 36 -15 36 C-14.34 34.02 -13.68 32.04 -13 30 C-13.7425 29.79375 -14.485 29.5875 -15.25 29.375 C-18.79496959 27.60251521 -19.94798396 25.32568116 -22 22 C-22.66 21.67 -23.32 21.34 -24 21 C-24 23.64 -24 26.28 -24 29 C-25.98 29 -27.96 29 -30 29 C-30 22.4 -30 15.8 -30 9 C-15.53571429 8.73214286 -15.53571429 8.73214286 -12 11 C-11.63076923 16.41538462 -11.63076923 16.41538462 -13.5 19.375 C-13.995 19.91125 -14.49 20.4475 -15 21 C-13.68 22.32 -12.36 23.64 -11 25 C-7.37 16.75 -3.74 8.5 0 0 Z " fill="#FEBD46" transform="translate(38,7)"/>
<path d="M0 0 C14.46428571 -0.26785714 14.46428571 -0.26785714 18 2 C18.36923077 7.41538462 18.36923077 7.41538462 16.5 10.375 C16.005 10.91125 15.51 11.4475 15 12 C15.99 13.1446875 15.99 13.1446875 17 14.3125 C19 17 19 17 19 20 C16.3125 20.4375 16.3125 20.4375 13 20 C11.41460283 18.32437697 10.27242786 16.59950596 9.078125 14.62890625 C8.08550102 12.83482322 8.08550102 12.83482322 6 12 C6 14.64 6 17.28 6 20 C4.02 20 2.04 20 0 20 C0 13.4 0 6.8 0 0 Z " fill="#3A4A59" transform="translate(8,16)"/>
<path d="M0 0 C3.5625 0.1875 3.5625 0.1875 5.5625 2.1875 C6.08281793 4.1712121 6.59830505 6.15686021 7.0546875 8.15625 C7.55534557 10.35328343 7.55534557 10.35328343 8.6875 13 C9.5625 15.1875 9.5625 15.1875 9.5625 18.1875 C3.2925 18.1875 -2.9775 18.1875 -9.4375 18.1875 C-8.4475 15.2175 -7.4575 12.2475 -6.4375 9.1875 C-6.06625 7.7025 -5.695 6.2175 -5.3125 4.6875 C-4.19786866 0.22897465 -4.19786866 0.22897465 0 0 Z " fill="#FADBAC" transform="translate(38.4375,18.8125)"/>
<path d="M0 0 C2.31 0 4.62 0 7 0 C7.0814222 2.22855574 7.13938079 4.45797655 7.1875 6.6875 C7.23970703 8.54955078 7.23970703 8.54955078 7.29296875 10.44921875 C6.98212299 14.21666932 6.2772857 16.02794917 4 19 C0.94306678 20.52846661 -1.62984547 20.23242445 -5 20 C-7.4375 18.8125 -7.4375 18.8125 -9 17 C-9.25 14.3125 -9.25 14.3125 -9 12 C-7.35 12 -5.7 12 -4 12 C-3.67 12.66 -3.34 13.32 -3 14 C-2.01 14.33 -1.02 14.66 0 15 C0 10.05 0 5.1 0 0 Z " fill="#40505F" transform="translate(61,16)"/>
<path d="M0 0 C0.6875 1.8125 0.6875 1.8125 1 4 C0 5 -1 6 -2 7 C-2.2165625 8.299375 -2.2165625 8.299375 -2.4375 9.625 C-3 13 -3 13 -7 22 C3.395 21.505 3.395 21.505 14 21 C14.33 21.99 14.66 22.98 15 24 C7.74 24 0.48 24 -7 24 C-8.6405836 15.79708198 -6.13113869 8.22949271 -2 1 C-1.34 0.67 -0.68 0.34 0 0 Z " fill="#FFA30C" transform="translate(36,15)"/>
<path d="M0 0 C0.82638376 2.89234315 1 4.88742431 1 8 C8.26 8.33 15.52 8.66 23 9 C23 9.66 23 10.32 23 11 C14.42 11 5.84 11 -3 11 C-2.22714361 7.13571805 -1.28980123 3.69743019 0 0 Z " fill="#FEB736" transform="translate(28,30)"/>
<path d="M0 0 C3.5 -0.3125 3.5 -0.3125 7 0 C7.66 0.66 8.32 1.32 9 2 C8.9375 3.875 8.9375 3.875 8 6 C5.4375 8.25 5.4375 8.25 3 10 C1.35 7.69 -0.3 5.38 -2 3 C-1.34 2.01 -0.68 1.02 0 0 Z " fill="#5BB2DF" transform="translate(35,19)"/>
<path d="M0 0 C2 1 2 1 2.8515625 3.06640625 C3.10679688 3.89011719 3.36203125 4.71382812 3.625 5.5625 C3.88539062 6.38878906 4.14578125 7.21507812 4.4140625 8.06640625 C4.60742188 8.70449219 4.80078125 9.34257812 5 10 C4.34 10.66 3.68 11.32 3 12 C1.68 12 0.36 12 -1 12 C-2.1875 9.9375 -2.1875 9.9375 -3 7 C-2.27873258 4.45187276 -1.21291073 2.37917104 0 0 Z " fill="#FDCA68" transform="translate(38,7)"/>
<path d="M0 0 C4.26010999 3.49937606 6.29475717 7.8576271 8 13 C8.25 16.5625 8.25 16.5625 8 19 C4.81374444 17.40687222 4.1744756 14.18876441 3 11 C1.88894812 7.35821883 0.8885089 3.7021204 0 0 Z " fill="#F5AA26" transform="translate(41,16)"/>
<path d="M0 0 C0.6875 1.8125 0.6875 1.8125 1 4 C0 5 -1 6 -2 7 C-2.36628677 8.99422795 -2.70131344 10.99453311 -3 13 C-3.66 13.66 -4.32 14.32 -5 15 C-5.66 15 -6.32 15 -7 15 C-3.4028777 3.99280576 -3.4028777 3.99280576 -2 1 C-1.34 0.67 -0.68 0.34 0 0 Z " fill="#F8AC33" transform="translate(36,15)"/>
<path d="M0 0 C0.66 1.32 1.32 2.64 2 4 C-1 6 -1 6 -3.1875 5.625 C-3.785625 5.41875 -4.38375 5.2125 -5 5 C-3.35 3.35 -1.7 1.7 0 0 Z " fill="#DFC49C" transform="translate(43,24)"/>
<path d="M0 0 C1.98 0.495 1.98 0.495 4 1 C4 2.98 4 4.96 4 7 C2.35 5.35 0.7 3.7 -1 2 C-0.67 1.34 -0.34 0.68 0 0 Z " fill="#3680CC" transform="translate(34,20)"/>
</svg>
